<svg width="0" height="0" class="hidden">
  <symbol xmlns="http://www.w3.org/2000/svg" viewBox="0 0 512 512" id="chevron">
    <path d="M0 0L0 512L512 512L512 0L0 0z"></path>
  </symbol>
  <symbol version="1.0" xmlns="http://www.w3.org/2000/svg" preserveAspectRatio="xMidYMid meet" viewBox="0 0 512.000000 512.000000" id="clock">
    <g transform="translate(0.000000,512.000000) scale(0.100000,-0.100000)" fill="#000000" stroke="none">
      <path d="M2370 5113 c-371 -35 -653 -114 -961 -269 -406 -203 -782 -548 -1029
-944 -179 -286 -309 -655 -362 -1025 -17 -118 -17 -512 0 -630 42 -295 120
-553 242 -800 137 -280 272 -468 494 -691 221 -220 412 -357 681 -489 188 -92
309 -137 500 -185 500 -126 1002 -102 1490 71 150 53 408 183 540 271 560 374
952 942 1095 1588 33 150 50 291 57 465 15 426 -73 832 -263 1214 -124 250
-263 447 -458 648 -214 222 -430 379 -711 518 -296 146 -572 225 -900 255
-102 9 -333 11 -415 3z m545 -342 c628 -106 1158 -448 1511 -977 179 -267 296
-573 351 -909 24 -153 24 -497 0 -650 -108 -668 -474 -1222 -1042 -1580 -243
-153 -537 -261 -850 -312 -154 -24 -497 -24 -650 1 -657 107 -1198 456 -1557
1006 -168 257 -281 557 -335 885 -24 153 -24 497 0 650 81 497 291 912 636
1255 382 381 862 605 1401 654 108 10 418 -4 535 -23z"></path>
      <path d="M2400 3327 l0 -832 503 -503 502 -502 113 113 112 112 -455 455 -455
455 0 767 0 768 -160 0 -160 0 0 -833z"></path>
    </g>
  </symbol>
  <symbol version="1.0" xmlns="http://www.w3.org/2000/svg" preserveAspectRatio="xMidYMid meet" viewBox="0 0 512.000000 512.000000" id="computer">
    <g transform="translate(0.000000,512.000000) scale(0.100000,-0.100000)" fill="#000000" stroke="none">
      <path d="M483 5102 c-93 -33 -169 -112 -193 -203 -7 -24 -9 -514 -8 -1371 l3
-1333 24 -45 c32 -61 76 -107 136 -138 l50 -27 778 -3 777 -2 0 -58 c0 -107
-30 -410 -46 -464 -5 -16 -22 -18 -169 -18 -175 0 -206 -6 -224 -47 -16 -34
-14 -47 10 -77 l20 -26 919 0 919 0 20 26 c24 30 26 43 10 77 -18 41 -49 47
-224 47 -147 0 -164 2 -169 18 -16 54 -46 357 -46 464 l0 58 778 2 777 3 50
27 c60 31 104 77 136 138 l24 45 0 1355 0 1355 -23 42 c-35 66 -79 110 -140
140 l-57 28 -2040 2 c-1938 2 -2043 2 -2092 -15z m4131 -155 c21 -12 47 -38
57 -57 18 -33 19 -82 19 -1112 l0 -1078 -100 0 -100 0 0 570 c0 557 0 570 -20
590 -25 25 -71 26 -101 1 l-24 -19 -3 -571 -2 -571 -1780 0 -1780 0 0 965 0
965 1780 0 1779 0 3 -254 c3 -233 5 -256 22 -275 25 -27 79 -28 106 -1 19 19
20 33 20 285 0 298 -3 313 -66 361 l-37 29 -1827 0 -1827 0 -37 -29 c-70 -53
-66 8 -66 -1071 l0 -975 -100 0 -100 0 0 1078 c0 1030 1 1079 19 1112 10 19
36 45 57 57 l39 23 2015 0 2015 0 39 -23z m74 -2559 c-3 -153 -4 -165 -27
-197 -47 -65 107 -61 -2101 -61 -2208 0 -2054 -4 -2101 61 -23 32 -24 44 -27
197 l-3 162 2131 0 2131 0 -3 -162z m-1764 -545 c8 -146 32 -379 42 -394 3 -5
-165 -9 -406 -9 -241 0 -409 4 -406 9 10 15 34 248 42 394 l7 137 357 0 357 0
7 -137z"></path>
      <path d="M2137 4189 c-27 -16 -807 -929 -818 -957 -19 -48 33 -105 87 -94 17
3 76 64 192 201 668 782 642 750 642 785 0 52 -61 90 -103 65z"></path>
      <path d="M1552 3983 c-40 -35 -224 -248 -233 -270 -18 -47 18 -93 72 -93 35 0
43 7 158 136 104 117 121 141 121 170 0 64 -71 97 -118 57z"></path>
      <path d="M2357 2393 c-29 -33 -31 -68 -4 -99 l25 -29 182 0 182 0 25 29 c27
31 25 66 -4 99 -14 15 -38 17 -203 17 -165 0 -189 -2 -203 -17z"></path>
      <path d="M783 1021 c-23 -11 -49 -31 -58 -45 -9 -14 -73 -202 -141 -418 -94
-295 -124 -401 -119 -424 8 -46 45 -96 85 -116 33 -17 150 -18 2010 -18 1860
0 1977 1 2010 18 40 20 77 70 85 116 5 23 -25 129 -119 424 -68 216 -132 404
-141 418 -9 14 -35 34 -58 45 -41 18 -88 19 -1333 19 l-1291 0 -27 -21 c-34
-27 -36 -77 -3 -107 l23 -22 1284 -2 1285 -3 71 -225 c40 -124 92 -289 117
-368 l45 -142 -1948 0 -1948 0 45 142 c25 79 77 244 117 368 l71 225 294 5
293 5 19 24 c24 30 24 62 0 92 l-19 24 -304 3 c-280 2 -306 1 -345 -17z"></path>
      <path d="M1246 709 c-34 -27 -36 -77 -3 -107 20 -19 35 -22 101 -22 68 0 80 3
101 25 14 13 25 36 25 50 0 14 -11 37 -25 50 -21 22 -33 25 -98 25 -60 0 -79
-4 -101 -21z"></path>
      <path d="M1656 708 c-36 -33 -39 -75 -6 -108 16 -16 33 -20 96 -20 41 0 84 5
95 11 46 24 42 105 -7 128 -14 6 -54 11 -89 11 -52 0 -68 -4 -89 -22z"></path>
      <path d="M2073 720 c-47 -19 -56 -78 -18 -115 21 -22 33 -25 103 -25 93 0 122
18 122 75 0 52 -36 75 -119 74 -36 0 -76 -4 -88 -9z"></path>
      <path d="M2465 705 c-32 -31 -33 -74 -2 -103 20 -19 35 -22 104 -22 76 0 83 2
102 26 28 35 26 69 -4 99 -21 22 -33 25 -100 25 -67 0 -79 -3 -100 -25z"></path>
      <path d="M2878 710 c-35 -27 -38 -80 -8 -110 17 -17 33 -20 100 -20 73 0 83 2
107 26 20 20 24 31 19 57 -10 51 -28 62 -114 65 -67 3 -81 1 -104 -18z"></path>
      <path d="M3293 718 c-48 -23 -51 -103 -4 -127 11 -6 54 -11 95 -11 89 0 116
17 116 74 0 54 -36 76 -119 75 -36 0 -76 -5 -88 -11z"></path>
      <path d="M3675 705 c-14 -13 -25 -36 -25 -50 0 -14 11 -37 25 -50 21 -22 33
-25 103 -25 69 0 81 3 100 23 31 33 29 80 -4 106 -22 17 -41 21 -101 21 -65 0
-77 -3 -98 -25z"></path>
      <path d="M1246 439 c-36 -28 -36 -80 0 -108 22 -17 41 -21 101 -21 65 0 77 3
98 25 14 13 25 36 25 50 0 14 -11 37 -25 50 -21 22 -33 25 -98 25 -60 0 -79
-4 -101 -21z"></path>
      <path d="M1657 448 c-27 -21 -36 -60 -22 -94 16 -39 30 -44 115 -44 84 0 97 5
116 42 13 25 13 35 3 59 -6 17 -20 34 -30 39 -26 15 -162 12 -182 -2z"></path>
      <path d="M2055 435 c-32 -31 -32 -69 0 -100 21 -22 33 -25 98 -25 91 0 127 21
127 75 0 54 -36 75 -127 75 -65 0 -77 -3 -98 -25z"></path>
      <path d="M2465 435 c-32 -31 -32 -69 0 -100 21 -22 33 -25 100 -25 67 0 79 3
100 25 14 13 25 36 25 50 0 14 -11 37 -25 50 -21 22 -33 25 -100 25 -67 0 -79
-3 -100 -25z"></path>
      <path d="M2876 439 c-34 -27 -36 -77 -3 -107 20 -19 35 -22 99 -22 94 0 122
17 122 75 0 57 -28 75 -119 75 -58 0 -77 -4 -99 -21z"></path>
      <path d="M3292 453 c-7 -3 -19 -18 -28 -35 -13 -25 -13 -35 -3 -59 6 -17 20
-34 30 -39 27 -15 161 -12 181 4 40 30 39 92 0 122 -17 13 -152 18 -180 7z"></path>
      <path d="M3675 435 c-14 -13 -25 -36 -25 -50 0 -14 11 -37 25 -50 21 -22 33
-25 98 -25 91 0 127 21 127 75 0 54 -36 75 -127 75 -65 0 -77 -3 -98 -25z"></path>
    </g>
  </symbol>
  <symbol version="1.0" xmlns="http://www.w3.org/2000/svg" preserveAspectRatio="xMidYMid meet" viewBox="0 0 512.000000 512.000000" id="graph">
    <g transform="translate(0.000000,512.000000) scale(0.100000,-0.100000)" fill="#000000" stroke="none">
      <path d="M4335 5104 c-267 -16 -285 -21 -285 -77 0 -18 6 -42 14 -53 16 -21
50 -22 286 -10 l115 6 -60 -56 c-100 -93 -408 -352 -570 -479 -514 -404 -1120
-804 -1695 -1120 -582 -319 -1294 -640 -1905 -860 -197 -71 -235 -92 -235
-132 0 -26 41 -73 63 -73 18 0 430 151 627 230 1439 576 2692 1341 3789 2313
41 37 77 65 79 63 2 -3 -8 -84 -22 -180 -28 -185 -27 -204 14 -226 28 -15 46
-12 74 13 23 20 27 43 66 311 42 288 42 289 22 315 -24 33 -51 34 -377 15z"></path>
      <path d="M4336 3828 c-14 -20 -16 -217 -16 -1905 0 -1870 0 -1883 20 -1903 19
-19 33 -20 378 -20 l359 0 21 23 22 23 0 1882 c0 1869 0 1882 -20 1902 -19 19
-33 20 -384 20 l-365 0 -15 -22z m644 -1898 l0 -1790 -260 0 -260 0 0 1790 0
1790 260 0 260 0 0 -1790z"></path>
      <path d="M2900 3080 c-20 -20 -20 -33 -20 -1528 l0 -1509 23 -21 c23 -22 28
-22 378 -22 l356 0 21 23 22 23 0 1507 c0 1494 0 1507 -20 1527 -19 19 -33 20
-380 20 -347 0 -361 -1 -380 -20z m640 -1530 l0 -1410 -260 0 -260 0 0 1410 0
1410 260 0 260 0 0 -1410z"></path>
      <path d="M1460 2470 c-20 -20 -20 -33 -20 -1223 l0 -1204 23 -21 c23 -22 28
-22 378 -22 l356 0 21 23 22 23 0 1202 c0 1189 0 1202 -20 1222 -19 19 -33 20
-380 20 -347 0 -361 -1 -380 -20z m640 -1220 l0 -1110 -260 0 -260 0 0 1110 0
1110 260 0 260 0 0 -1110z"></path>
      <path d="M25 1575 l-25 -24 0 -754 0 -754 23 -21 c23 -22 28 -22 380 -22 344
0 358 1 377 20 20 20 20 33 20 779 l0 760 -26 20 c-26 20 -38 21 -376 21
l-349 0 -24 -25z m635 -775 l0 -660 -260 0 -260 0 0 660 0 660 260 0 260 0 0
-660z"></path>
    </g>
  </symbol>
  <symbol version="1.0" xmlns="http://www.w3.org/2000/svg" preserveAspectRatio="xMidYMid meet" viewBox="0 0 512.000000 512.000000" id="menu">
    <g transform="translate(0.000000,512.000000) scale(0.100000,-0.100000)" fill="#000000" stroke="none">
      <path d="M799 3906 c-56 -20 -96 -53 -126 -104 -24 -40 -28 -58 -28 -123 0
-67 4 -81 30 -125 19 -30 49 -60 79 -79 l49 -30 1757 0 1757 0 49 30 c30 19
60 49 79 79 27 44 30 58 30 126 0 68 -3 82 -30 126 -19 30 -49 60 -79 79 l-49
30 -1741 2 c-1406 2 -1748 0 -1777 -11z"></path>
      <path d="M799 2786 c-56 -20 -96 -53 -126 -104 -24 -40 -28 -58 -28 -123 0
-67 4 -81 30 -125 19 -30 49 -60 79 -79 l49 -30 1757 0 1757 0 49 30 c30 19
60 49 79 79 27 44 30 58 30 126 0 68 -3 82 -30 126 -19 30 -49 60 -79 79 l-49
30 -1741 2 c-1406 2 -1748 0 -1777 -11z"></path>
      <path d="M799 1666 c-56 -20 -96 -53 -126 -104 -24 -40 -28 -58 -28 -123 0
-67 4 -81 30 -125 19 -30 49 -60 79 -79 l49 -30 1757 0 1757 0 49 30 c30 19
60 49 79 79 27 44 30 58 30 126 0 68 -3 82 -30 126 -19 30 -49 60 -79 79 l-49
30 -1741 2 c-1406 2 -1748 0 -1777 -11z"></path>
    </g>
  </symbol>
  <symbol version="1.0" xmlns="http://www.w3.org/2000/svg" preserveAspectRatio="xMidYMid meet" viewBox="0 0 512.000000 512.000000" id="quote">
    <g transform="translate(0.000000,512.000000) scale(0.100000,-0.100000)" fill="#000000" stroke="none">
      <path d="M1815 3947 c-603 -314 -1012 -822 -1126 -1398 -29 -146 -32 -422 -6
-565 32 -175 101 -350 185 -469 116 -166 202 -245 344 -316 130 -65 211 -84
373 -83 163 0 229 14 346 75 140 73 240 183 320 354 52 110 71 198 70 320 -2
410 -309 718 -741 742 -118 6 -191 -4 -281 -41 l-61 -25 7 47 c22 151 90 345
166 478 132 230 359 452 626 611 51 31 92 59 91 62 -8 18 -184 270 -188 270
-3 0 -59 -28 -125 -62z"></path>
      <path d="M3950 3949 c-675 -356 -1107 -948 -1149 -1576 -29 -438 96 -801 363
-1051 276 -258 769 -283 1028 -52 101 90 206 267 243 409 85 329 -72 679 -375
835 -201 104 -452 124 -632 51 -32 -12 -58 -21 -58 -18 0 3 9 49 20 103 85
417 341 756 773 1022 53 33 97 62 97 65 0 8 -184 273 -189 273 -3 0 -58 -28
-121 -61z"></path>
    </g>
  </symbol>
  <symbol xmlns="http://www.w3.org/2000/svg" viewBox="0 0 512 512" id="search-interface-symbol">
    <path d="M0 0L0 192L1 192C1.06046 170.09 8.77858 146.777 17.6944 127C47.1963 61.558 119.029 1.62051 194 1L175 0L136 0L0 0z"></path>
    <path d="M194 0.424377C129.859 8.94919 73.7664 39.3344 36.0363 93C-34.8547 193.832 2.74924 339.549 110 397.691C159.438 424.493 219.682 432.056 274 416.573C294.065 410.853 313.32 402.824 331 391.681C335.511 388.838 346.628 377.967 352 380.022C362.522 384.049 372.772 400.246 381 407.91C406.482 431.647 431.358 456.398 456 481C467.178 492.16 481.929 515.151 500 511.66C509.991 509.73 514.661 498.065 510.991 489C507.556 480.516 497.351 473.351 491 467C462.82 438.82 434.182 411.182 406 383C399.115 376.115 392.213 369.363 385 362.83C382.662 360.713 378.168 357.472 378.016 354C377.842 350.033 383.267 345.802 385.54 343C392.612 334.285 398.739 324.744 404.281 315C419.475 288.287 427.124 259.334 430.715 229C445.966 100.157 320.943 -16.4472 194 0.424377z"></path>
    <path d="M236 0L236 1C261.344 1.06982 288.578 10.5437 311 21.7531C395.71 64.1029 445.223 157.239 427.54 251C422.438 278.052 411.526 304.109 396.333 327C391.939 333.619 387.284 339.952 382.131 346C380.178 348.293 376.459 351.618 377.342 355C378.527 359.536 384.676 363.353 388 366.285C396.056 373.391 403.406 381.406 411 389C433.849 411.849 457.155 434.155 480 457C489.955 466.955 504.488 477.446 511 490L512 490L512 0L236 0M208 33.4244C192.379 35.4754 177.249 36.3054 162 41.0255C112.565 56.3274 70.9428 91.7518 49.3086 139C41.5145 156.022 37.0617 174.474 34.8449 193C21.3561 305.723 124.698 403.383 236 389.714C322.502 379.09 390.923 309.438 396.91 222C402.735 136.951 341.606 58.9335 260 38.6266C243.846 34.6067 224.627 31.2413 208 33.4244M0 232L0 512L490 512L490 511C476.597 505.808 465.097 488.98 455 479.004C430.886 455.177 406.808 431.019 382 407.91C373.797 400.27 362.686 382.776 352 379.252C348.362 378.053 344.671 381.66 342 383.629C335.321 388.553 328.25 393.093 321 397.138C296.476 410.821 268.853 419.501 241 422.845C151.276 433.616 64.8122 386.105 22.3094 307C14.0008 291.536 8.19729 274.107 4.42438 257C2.6919 249.145 3.06649 239.291 0 232M511 501C509.063 505.986 505.986 509.063 501 511L501 512L512 512L511 501z"></path>
  </symbol>
  <symbol xmlns="http://www.w3.org/2000/svg" viewBox="0 0 512 512" id="settings">
    <path d="M0 0L0 298L1 298C3.34166 284.864 14.3722 275.308 27 272.239C32.228 270.969 44.2225 271.477 47.4429 266.683C49.9714 262.919 55.5727 251.42 54.6752 247C52.603 236.795 41.2457 229.933 39.3287 219C34.9282 193.904 63.357 163.046 88 161.185C96.7765 160.523 105.041 164.883 112 169.721C116.11 172.578 121.547 178.213 127 177.255C131.365 176.488 142.166 172.693 145.062 169.298C152.134 161.005 145.955 135.047 166 140.434C168.279 141.047 170.177 142.411 171.786 144.109C177.928 150.586 175.216 158.233 173.92 166C172.769 172.899 172.573 182.159 168.196 187.895C164.272 193.037 157.713 193.977 152 196.054C143.579 199.115 135.581 204.983 127 207.197C117.248 209.712 106.289 198.278 99 193.144C94.8278 190.206 90.0613 186.687 85 189.746C79.2057 193.248 64.7675 205.496 65.9892 213C67.7772 223.982 80.1362 231.691 83.8657 242C87.1927 251.197 78.7489 260.864 75.4529 269C73.1029 274.801 72.1153 281.621 68.7755 286.96C60.2962 300.515 39.6362 290.988 29.419 300.514C23.9093 305.651 25.7063 318.195 26.0401 325C27.1068 346.739 62.9367 332 70.4406 351C73.4816 358.7 75.5371 366.526 79.2477 374C81.6341 378.807 85.6512 384.37 84.5941 390C82.4121 401.622 60.1927 415.775 67.7423 428C69.8508 431.414 73.1836 434.187 76 437C79.1492 440.145 82.4975 444.407 87 445.562C101.704 449.331 111.495 423.432 127 427.641C132.238 429.063 137.084 432.441 142 434.691C150.719 438.684 164.742 439.745 169.547 449.004C174.206 457.981 170.4 479.24 180.108 484.427C183.69 486.342 188.08 485.998 192 486C197.593 486.002 204.93 487.14 209.867 483.91C220.348 477.054 213.436 455.592 221.558 446.304C228.631 438.215 249.838 432.336 260 428.468C278.836 421.3 292.008 457.314 309 440.981C313.475 436.68 321.244 431.077 323.215 425C326.669 414.348 307.405 401.14 304.979 391C303.756 385.887 306.426 381.378 308.702 377C313.614 367.551 315.357 351.696 323.329 344.558C330.135 338.464 357.023 333.2 364.996 338.009C377.432 345.51 371.416 360.417 359 363.181C353.433 364.421 347.654 365.282 342 366C340.314 372.177 334.03 380.738 334.632 387C335.563 396.686 347.321 404.995 349.761 415C355.282 437.645 329.06 468.803 307 472.671C298.029 474.244 288.655 472.292 281 467.455C276.288 464.478 270.57 458.229 265 457.245C260.217 456.4 250.345 461.706 246.148 464.055C240.479 467.228 241.159 479.275 239.761 485C236.684 497.597 227.087 508.667 214 511L214 512L512 512L512 173L511 173C505.941 190.528 490.181 194.944 474 197C472.776 201.281 469.068 206.463 469.72 211C471.243 221.596 482.223 227.93 481.87 240C481.477 253.492 470.85 262.266 462 270.996C456.801 276.125 451.335 280.204 444 281.535C426.461 284.719 415.16 263.563 399.279 273.708C393.163 277.615 394.321 291.704 390.521 298C380.499 314.606 355.099 316.559 338 311.225C329.216 308.486 322.261 301.477 318.927 293C314.845 282.622 317.423 274.572 305 270.484C296.79 267.782 287.126 279.157 279 281.239C260.89 285.88 243.766 268.756 234.761 255C228.996 246.194 228.715 235.325 233.377 226C237.008 218.737 244.257 213.563 240.715 205C235.644 192.742 222.838 196.789 213 190.15C198.481 180.352 197.582 161.88 199.171 146C200.288 134.829 206.564 124.638 217 119.904C227.2 115.277 236.874 118.474 241.17 106C244.257 97.0344 233.07 88.6287 230.903 80C226.335 61.8174 241.38 47.904 254 37.213C262.366 30.1258 273.966 28.3351 284 32.6829C294.829 37.3754 299.662 45.6876 311.856 38.9452C317.402 35.8788 316.497 26.4262 318.22 21C321.356 11.1198 329.124 3.85052 339 1L309 0L240 0L0 0z"></path>
    <path d="M474 197C484.233 196.191 496.241 194.389 503.815 186.815C515.741 174.889 516.75 140.785 505.787 128.004C495.546 116.064 476.274 120.895 470.883 106C467.855 97.6308 478.333 89.9294 480.51 82C485.95 62.1875 469.551 41.0427 452 32.9159C443.606 29.0294 433.262 29.2833 425 33.3773C419.574 36.0657 413.485 43.3487 407 41.4776C391.875 37.1134 397.398 22.6968 389.443 12C377.408 -4.18195 339.569 -6.19855 325.185 8.18518C317.102 16.2683 320.413 30.3353 313.436 37.3009C303.323 47.3981 294.445 36.7757 285 32.6829C275.975 28.7723 265.514 29.4215 257 34.3634C241.434 43.3985 226.166 62.1459 230.903 81C233.56 91.5776 244.727 97.8624 239.557 108.997C235.701 117.3 227.634 116.152 220 118.44C211.704 120.926 204.786 126.916 201.481 135C194.92 151.054 196.663 179.765 212.001 190.15C222.614 197.336 237.896 192.633 241.391 208C242.757 214.003 235.887 219.978 233.377 225C228.934 233.886 228.628 245.19 233.529 254C242.17 269.532 260.983 286.112 280 281.239C288.381 279.092 297.424 268.061 306 271.304C317.135 275.514 315.114 283.308 318.548 293C321.596 301.605 328.2 308.481 337 311.225C353.605 316.405 380.648 315.34 390.521 299C394.631 292.198 393.136 277.789 400.133 273.708C414.663 265.235 426.663 283.582 443 281.826C451.161 280.95 457.302 276.617 463 270.996C468.008 266.056 474.074 261.138 477.637 255C482.973 245.806 483.248 234.425 478.366 225C476.048 220.525 471.121 216.029 470.222 211C469.417 206.492 473.213 201.43 474 197z"></path>
    <path d="M372 0L372 1C382.384 2.85211 390.82 12.1147 393.79 22C395.459 27.5554 394.381 35.8216 400.109 38.956C417.452 48.4469 430.745 23.5371 451 32.9159C466.724 40.1963 485.018 60.6436 480.985 79C478.102 92.1187 465.447 98.008 473.044 111.891C476.283 117.811 485.279 116.614 491 118.523C500.371 121.651 508.258 129.504 511 139L512 139L512 0L372 0M347.133 26.7423C337.569 30.9471 343.706 52.0648 333.906 58.8665C326.922 63.7133 307.476 72.9047 299 72.1705C283.212 70.8031 278.07 49.5399 263.015 65.0008C261.287 66.7757 259.212 68.6658 258.237 71C255.057 78.6113 269.521 89.6398 271.5 97C273.803 105.565 264.371 123.207 260.442 131C256.084 139.646 247.608 140.809 239 142.247C233.476 143.169 226.888 143.16 226.109 150.005C225.633 154.185 224.602 163.151 227.603 166.486C236.993 176.918 254.135 166.128 261.174 183C264.661 191.36 273.612 205.995 271.605 215C269.896 222.666 254.21 234.219 258.647 242C259.952 244.287 262.16 246.158 264.001 247.999C279.89 263.888 288.103 234.162 306 241.352C314.681 244.839 330.582 248.834 336.606 256.055C342.552 263.182 338.669 280.177 346.279 284.972C349.143 286.778 353.774 286.005 357 286C359.517 285.996 362.493 286.311 364.856 285.258C372.036 282.055 369.667 265.349 373.14 259.001C377.879 250.338 399.448 241.954 409 240.329C420.619 238.353 431.421 257.765 441 253.763C443.334 252.788 445.224 250.713 446.999 248.985C463.802 232.623 433.781 223.256 441.876 204C445.415 195.582 449.175 179.29 457.093 174.228C463.923 169.861 482.961 172.754 485.566 163.945C486.215 161.752 485.996 159.258 486 157C486.005 153.793 486.723 149.238 484.821 146.43C478.657 137.328 460.089 144.599 452.818 133.957C447.719 126.494 437.581 104.671 440.574 96C443.261 88.2162 451.412 82.7779 453.713 75C455.282 69.6969 445.857 62.0122 442 59.3619C437.257 56.1028 432.887 60.6689 429 63.3411C421.412 68.5579 414.573 74.6969 405 70.662C396.505 67.0817 381.636 63.6105 375.394 56.787C368.721 49.4941 373.372 32.4625 365.57 27.179C362.762 25.2772 358.207 25.9948 355 26C352.472 26.0041 349.51 25.6977 347.133 26.7423z"></path>
    <path d="M345 94.4391C303.195 101.019 280.864 149.213 300.49 186C313.692 210.746 341.1 221.9 368 217.704C408.036 211.458 429.288 164.505 412.677 129C400.695 103.39 372.48 90.1136 345 94.4391z"></path>
    <path d="M348 121.518C302.181 131.293 319.905 201.36 365 190.475C408.874 179.884 391.774 112.179 348 121.518z"></path>
    <path d="M342 366C347.352 365.577 352.721 364.555 358 363.575C370.043 361.34 379.346 346.219 365.985 338.009C357.871 333.024 330.586 338.013 323.329 343.854C319.255 347.133 318.217 352.305 316.645 357C313.17 367.384 301.526 381.973 305.25 393C309.222 404.763 330.193 417.991 318.956 430C314.848 434.39 306.868 445.534 300.424 445.895C285.818 446.714 277.769 423.051 261 427.789C254.36 429.665 248.399 433.963 242 436.547C234.667 439.509 223.835 440.443 219.688 448.09C214.379 457.882 219.317 478.802 207.981 484.427C204.283 486.263 200.007 485.998 196 486C191.455 486.002 186.325 486.593 182.015 484.852C168.552 479.412 176.475 454.912 167.606 445.214C163.718 440.963 157.197 440.157 152 438.308C144.353 435.586 137.489 431.36 130 428.352C113.033 421.535 104.751 444.281 90 445.613C82.7076 446.272 72.2852 433.316 68.4336 428C60.4636 416.999 82.2969 401.892 84.6088 391C86.3931 382.594 79.5675 374.342 76.4275 367C73.8257 360.916 72.6917 353.795 69.5579 348.015C61.4108 332.991 30.8062 345.487 26.5332 327.999C25.6682 324.459 25.9998 320.613 26 317C26.0003 312.36 25.5482 307.189 28.0895 303.055C36.1422 289.954 61.2942 301.46 69.3264 286.96C72.2101 281.754 73.2246 275.501 75.4529 270C79.1039 260.987 87.6134 251.23 83.8665 241C80.2508 231.128 67.2999 222.881 66.1443 212.285C65.4339 205.772 80.1173 193.851 85 190.449C90.4642 186.642 95.5172 191.381 100 194.579C108.59 200.706 118.661 210.865 130 206.532C138.193 203.401 145.639 198.614 154 195.695C159.318 193.838 165.45 192.898 168.853 187.895C172.988 181.814 173.02 172.077 174.25 165C175.656 156.906 178.286 147.205 169.957 141.742C150.279 128.837 150.44 159.085 145.566 167.775C143.301 171.815 130.54 176.784 126 176.944C121.011 177.119 115.857 171.654 112 169.029C105.159 164.373 97.4507 160.888 89 161.054C62.3516 161.577 34.73 193.774 39.3287 220C41.1851 230.587 52.8914 237.721 54.4282 247.576C55.0737 251.714 49.6179 262.219 47.4429 265.852C43.1744 272.981 23.511 271.936 16 276.174C-2.91949 286.851 -4.23185 319.95 0.927469 339C4.28313 351.39 14.8405 359.845 27 362.575C32.4098 363.789 41.0768 363.614 45.6065 366.938C49.5908 369.862 51.8171 378.445 53.3627 383C56.6413 392.663 42.2585 403.57 39.7639 413C33.7761 435.636 50.7192 451.115 66 464.895C76.446 474.315 93.6613 476.06 106 469.331C112.09 466.01 120.658 456.183 128 458.379C132.684 459.78 142.054 462.422 145.062 466.418C148.486 470.968 147.955 479.569 149.236 485C152.089 497.096 160.672 507.734 173 511.073C191.331 516.037 224.562 515.094 235.123 497C239.637 489.267 239.012 468.97 246.148 464.532C249.958 462.163 260.105 456.925 264.576 457.492C270.056 458.186 276.294 465.27 281 468.071C288.832 472.732 298.024 473.936 307 472.815C330.63 469.864 355.424 437.228 349.761 414C347.388 404.267 336.219 396.349 335.093 387C334.333 380.685 340.886 372.474 342 366M185 230.425C171.123 232.314 157.75 236.56 146 244.356C136.34 250.765 127.676 259.201 121.436 269C79.6637 334.601 139.307 421.477 216 402.255C244.874 395.018 268.535 373.461 277.656 345C281.329 333.539 288.893 304.656 269 304.059C251.633 303.539 253.747 333.321 247.741 345C232.914 373.831 196.855 385.711 168 371.191C127.003 350.56 123.668 293.596 161 267.774C168.409 262.649 177.142 259.202 186 257.754C192.783 256.645 200.409 257.853 205.196 251.812C217.027 236.88 196.921 228.802 185 230.425z"></path>
    <path d="M0 337L0 512L175 512L175 511C161.841 508.653 152.183 496.496 149.236 484C147.872 478.215 148.666 467.268 142.856 464.055C138.44 461.613 129.069 456.65 124 457.615C118.593 458.644 113.552 464.064 109 466.945C99.2975 473.087 86.8569 475.581 76 470.687C56.8935 462.073 34.6897 437.264 39.5185 415C41.7499 404.712 52.483 397.828 54.3858 388C55.3789 382.871 50.7144 374.626 48.5324 370.058C44.7443 362.128 28.4697 363.578 21 360.525C9.8688 355.975 5.48189 346.702 0 337z"></path>
  </symbol>
  <symbol version="1.0" xmlns="http://www.w3.org/2000/svg" preserveAspectRatio="xMidYMid meet" viewBox="0 0 512.000000 512.000000" id="snap">
    <g transform="translate(0.000000,512.000000) scale(0.100000,-0.100000)" fill="#000000" stroke="none">
      <path d="M343 5006 c-88 -28 -175 -106 -216 -194 l-22 -47 0 -2190 0 -2190 23
-49 c34 -76 84 -129 154 -166 l63 -34 225 -7 c124 -4 1139 -13 2257 -20 l2031
-12 46 23 c52 24 92 70 107 121 11 39 -55 4321 -69 4455 -15 138 -75 230 -190
286 l-67 33 -2150 2 c-1749 1 -2158 -1 -2192 -11z m4362 -132 c56 -29 101 -92
113 -156 9 -47 77 -3866 70 -3874 -4 -3 -943 964 -1003 1033 -22 25 -64 56
-103 75 -59 29 -76 33 -147 33 -67 0 -89 -5 -135 -27 -70 -35 -111 -78 -369
-388 -120 -144 -230 -267 -253 -282 -85 -57 -192 -46 -263 27 -26 27 -183 290
-450 754 -225 392 -427 732 -448 757 -23 26 -64 56 -105 76 -57 28 -76 33
-143 33 -68 0 -84 -4 -145 -35 -67 -34 -80 -48 -537 -575 -257 -297 -489 -565
-517 -595 l-49 -55 0 1515 c-1 1039 2 1527 10 1553 13 49 73 115 124 138 38
18 127 19 2175 16 l2135 -2 40 -21z m-3179 -2065 c86 -22 96 -36 544 -814 232
-401 436 -745 453 -763 18 -18 61 -48 97 -65 56 -28 75 -32 145 -32 67 0 89 5
135 27 74 36 88 51 345 358 243 290 276 324 332 339 104 29 146 10 278 -128
61 -63 317 -328 570 -588 530 -545 473 -458 474 -721 1 -152 1 -153 -25 -179
l-26 -26 -1176 7 c-648 4 -1650 11 -2229 16 l-1052 8 -46 22 c-50 24 -90 70
-111 127 -10 30 -13 151 -14 564 l0 526 559 644 c386 447 569 650 592 661 63
29 92 33 155 17z"></path>
      <path d="M2689 4007 c-201 -68 -341 -237 -371 -444 -30 -211 73 -438 248 -543
128 -77 294 -102 425 -64 206 60 360 239 391 452 39 268 -129 529 -391 606
-82 24 -220 21 -302 -7z m334 -132 c124 -60 212 -178 238 -319 34 -183 -67
-379 -239 -463 -52 -26 -66 -28 -172 -28 -106 0 -119 2 -173 29 -76 37 -166
126 -200 197 -91 194 -39 414 126 539 86 64 143 81 262 77 85 -3 109 -8 158
-32z"></path>
    </g>
  </symbol>
  <symbol version="1.0" xmlns="http://www.w3.org/2000/svg" preserveAspectRatio="xMidYMid meet" viewBox="0 0 512.000000 512.000000" id="wordpress">
    <g transform="translate(0.000000,512.000000) scale(0.100000,-0.100000)" fill="#000000" stroke="none">
      <path d="M2325 4703 c-163 -21 -366 -66 -402 -89 -44 -28 -21 -104 30 -104 13
0 66 11 119 25 290 73 658 75 961 4 247 -58 498 -173 715 -328 l62 -45 -44
-17 c-180 -68 -303 -271 -281 -463 12 -96 61 -183 273 -476 168 -233 198 -570
87 -975 -55 -200 -196 -669 -204 -677 -5 -6 -656 1868 -669 1927 -2 10 20 14
97 17 110 3 135 14 179 78 43 64 15 163 -58 200 -38 19 -58 20 -652 20 -564 0
-616 -1 -647 -18 -48 -24 -73 -62 -78 -119 -6 -65 20 -111 77 -140 36 -19 61
-23 136 -23 l92 0 137 -331 137 -330 -194 -576 -195 -576 -77 224 c-42 123
-181 530 -309 904 l-233 680 102 5 c83 4 108 9 130 26 50 37 68 70 68 124 0
54 -18 87 -68 124 -26 20 -44 21 -347 26 l-319 5 68 80 c132 155 332 324 506
427 59 35 75 67 52 103 -25 39 -61 32 -158 -28 -540 -339 -904 -903 -992
-1536 -21 -146 -21 -435 0 -583 120 -877 766 -1592 1625 -1802 166 -40 311
-56 512 -56 262 0 451 31 690 110 176 59 207 80 193 135 -10 38 -46 48 -100
28 -25 -10 -48 -15 -51 -12 -3 4 -148 393 -321 865 -174 472 -321 865 -326
872 -6 6 -25 12 -43 12 -18 0 -37 -6 -43 -12 -5 -7 -152 -409 -327 -893 -175
-484 -319 -881 -320 -883 -1 -2 -50 16 -109 39 l-106 42 -21 56 c-146 390
-963 2602 -967 2618 -4 22 66 165 124 253 l27 40 342 0 c292 0 344 -2 355 -15
10 -12 10 -18 0 -30 -10 -12 -40 -15 -150 -15 -120 0 -139 -2 -153 -18 -10
-10 -17 -27 -17 -38 0 -10 161 -489 357 -1063 387 -1128 366 -1078 430 -1055
25 8 42 53 259 699 139 411 231 698 227 710 -10 37 -294 720 -309 743 -14 21
-21 22 -133 22 -123 0 -151 9 -137 45 5 13 79 15 606 15 527 0 601 -2 606 -15
14 -36 -13 -44 -159 -47 -140 -3 -141 -3 -156 -29 -13 -24 7 -87 368 -1140
210 -613 389 -1124 397 -1136 18 -28 64 -31 87 -5 16 18 185 561 267 860 27
100 56 229 65 286 37 254 4 529 -86 709 -17 32 -69 110 -116 175 -218 294
-247 379 -179 527 52 114 150 185 257 185 l57 0 85 -89 c137 -145 238 -285
332 -465 l58 -108 -7 -82 c-3 -44 -17 -124 -31 -176 -51 -190 -765 -2305 -781
-2315 -40 -24 -74 -58 -74 -74 0 -30 30 -61 58 -61 36 0 193 99 322 203 426
342 714 854 785 1392 20 152 19 432 -1 577 -120 877 -766 1592 -1625 1802
-173 42 -310 56 -522 55 -106 -1 -205 -4 -222 -6z m-1236 -2688 c243 -654 440
-1194 438 -1199 -3 -10 -180 108 -257 172 -370 310 -606 704 -707 1180 -25
119 -27 144 -28 382 0 203 4 274 18 350 24 132 78 323 88 313 4 -4 206 -543
448 -1198z m3474 905 c30 -157 32 -550 3 -705 -73 -396 -258 -765 -529 -1052
-92 -97 -241 -227 -245 -215 -1 5 108 337 243 738 135 401 295 882 356 1069
60 187 112 347 116 355 8 21 28 -49 56 -190z m-1664 -1524 c217 -591 279 -771
269 -777 -22 -14 -219 -58 -329 -74 -121 -17 -411 -20 -526 -5 -43 6 -124 20
-181 32 -86 17 -102 23 -97 37 9 21 532 1472 552 1529 9 24 19 40 23 35 3 -4
134 -354 289 -777z"></path>
      <path d="M1730 4549 c-25 -11 -53 -27 -62 -36 -37 -34 -9 -93 44 -93 43 0 125
39 137 66 15 34 14 41 -9 64 -25 25 -52 24 -110 -1z"></path>
    </g>
  </symbol>
</svg>