<?xml version="1.0" standalone="no"?>
<!DOCTYPE svg PUBLIC "-//W3C//DTD SVG 20010904//EN"
 "http://www.w3.org/TR/2001/REC-SVG-20010904/DTD/svg10.dtd">
<svg version="1.0" xmlns="http://www.w3.org/2000/svg"
 width="512.000000pt" height="512.000000pt" viewBox="0 0 512.000000 512.000000"
 preserveAspectRatio="xMidYMid meet">

<g transform="translate(0.000000,512.000000) scale(0.100000,-0.100000)"
fill="#000000" stroke="none">
<path d="M483 5102 c-93 -33 -169 -112 -193 -203 -7 -24 -9 -514 -8 -1371 l3
-1333 24 -45 c32 -61 76 -107 136 -138 l50 -27 778 -3 777 -2 0 -58 c0 -107
-30 -410 -46 -464 -5 -16 -22 -18 -169 -18 -175 0 -206 -6 -224 -47 -16 -34
-14 -47 10 -77 l20 -26 919 0 919 0 20 26 c24 30 26 43 10 77 -18 41 -49 47
-224 47 -147 0 -164 2 -169 18 -16 54 -46 357 -46 464 l0 58 778 2 777 3 50
27 c60 31 104 77 136 138 l24 45 0 1355 0 1355 -23 42 c-35 66 -79 110 -140
140 l-57 28 -2040 2 c-1938 2 -2043 2 -2092 -15z m4131 -155 c21 -12 47 -38
57 -57 18 -33 19 -82 19 -1112 l0 -1078 -100 0 -100 0 0 570 c0 557 0 570 -20
590 -25 25 -71 26 -101 1 l-24 -19 -3 -571 -2 -571 -1780 0 -1780 0 0 965 0
965 1780 0 1779 0 3 -254 c3 -233 5 -256 22 -275 25 -27 79 -28 106 -1 19 19
20 33 20 285 0 298 -3 313 -66 361 l-37 29 -1827 0 -1827 0 -37 -29 c-70 -53
-66 8 -66 -1071 l0 -975 -100 0 -100 0 0 1078 c0 1030 1 1079 19 1112 10 19
36 45 57 57 l39 23 2015 0 2015 0 39 -23z m74 -2559 c-3 -153 -4 -165 -27
-197 -47 -65 107 -61 -2101 -61 -2208 0 -2054 -4 -2101 61 -23 32 -24 44 -27
197 l-3 162 2131 0 2131 0 -3 -162z m-1764 -545 c8 -146 32 -379 42 -394 3 -5
-165 -9 -406 -9 -241 0 -409 4 -406 9 10 15 34 248 42 394 l7 137 357 0 357 0
7 -137z"/>
<path d="M2137 4189 c-27 -16 -807 -929 -818 -957 -19 -48 33 -105 87 -94 17
3 76 64 192 201 668 782 642 750 642 785 0 52 -61 90 -103 65z"/>
<path d="M1552 3983 c-40 -35 -224 -248 -233 -270 -18 -47 18 -93 72 -93 35 0
43 7 158 136 104 117 121 141 121 170 0 64 -71 97 -118 57z"/>
<path d="M2357 2393 c-29 -33 -31 -68 -4 -99 l25 -29 182 0 182 0 25 29 c27
31 25 66 -4 99 -14 15 -38 17 -203 17 -165 0 -189 -2 -203 -17z"/>
<path d="M783 1021 c-23 -11 -49 -31 -58 -45 -9 -14 -73 -202 -141 -418 -94
-295 -124 -401 -119 -424 8 -46 45 -96 85 -116 33 -17 150 -18 2010 -18 1860
0 1977 1 2010 18 40 20 77 70 85 116 5 23 -25 129 -119 424 -68 216 -132 404
-141 418 -9 14 -35 34 -58 45 -41 18 -88 19 -1333 19 l-1291 0 -27 -21 c-34
-27 -36 -77 -3 -107 l23 -22 1284 -2 1285 -3 71 -225 c40 -124 92 -289 117
-368 l45 -142 -1948 0 -1948 0 45 142 c25 79 77 244 117 368 l71 225 294 5
293 5 19 24 c24 30 24 62 0 92 l-19 24 -304 3 c-280 2 -306 1 -345 -17z"/>
<path d="M1246 709 c-34 -27 -36 -77 -3 -107 20 -19 35 -22 101 -22 68 0 80 3
101 25 14 13 25 36 25 50 0 14 -11 37 -25 50 -21 22 -33 25 -98 25 -60 0 -79
-4 -101 -21z"/>
<path d="M1656 708 c-36 -33 -39 -75 -6 -108 16 -16 33 -20 96 -20 41 0 84 5
95 11 46 24 42 105 -7 128 -14 6 -54 11 -89 11 -52 0 -68 -4 -89 -22z"/>
<path d="M2073 720 c-47 -19 -56 -78 -18 -115 21 -22 33 -25 103 -25 93 0 122
18 122 75 0 52 -36 75 -119 74 -36 0 -76 -4 -88 -9z"/>
<path d="M2465 705 c-32 -31 -33 -74 -2 -103 20 -19 35 -22 104 -22 76 0 83 2
102 26 28 35 26 69 -4 99 -21 22 -33 25 -100 25 -67 0 -79 -3 -100 -25z"/>
<path d="M2878 710 c-35 -27 -38 -80 -8 -110 17 -17 33 -20 100 -20 73 0 83 2
107 26 20 20 24 31 19 57 -10 51 -28 62 -114 65 -67 3 -81 1 -104 -18z"/>
<path d="M3293 718 c-48 -23 -51 -103 -4 -127 11 -6 54 -11 95 -11 89 0 116
17 116 74 0 54 -36 76 -119 75 -36 0 -76 -5 -88 -11z"/>
<path d="M3675 705 c-14 -13 -25 -36 -25 -50 0 -14 11 -37 25 -50 21 -22 33
-25 103 -25 69 0 81 3 100 23 31 33 29 80 -4 106 -22 17 -41 21 -101 21 -65 0
-77 -3 -98 -25z"/>
<path d="M1246 439 c-36 -28 -36 -80 0 -108 22 -17 41 -21 101 -21 65 0 77 3
98 25 14 13 25 36 25 50 0 14 -11 37 -25 50 -21 22 -33 25 -98 25 -60 0 -79
-4 -101 -21z"/>
<path d="M1657 448 c-27 -21 -36 -60 -22 -94 16 -39 30 -44 115 -44 84 0 97 5
116 42 13 25 13 35 3 59 -6 17 -20 34 -30 39 -26 15 -162 12 -182 -2z"/>
<path d="M2055 435 c-32 -31 -32 -69 0 -100 21 -22 33 -25 98 -25 91 0 127 21
127 75 0 54 -36 75 -127 75 -65 0 -77 -3 -98 -25z"/>
<path d="M2465 435 c-32 -31 -32 -69 0 -100 21 -22 33 -25 100 -25 67 0 79 3
100 25 14 13 25 36 25 50 0 14 -11 37 -25 50 -21 22 -33 25 -100 25 -67 0 -79
-3 -100 -25z"/>
<path d="M2876 439 c-34 -27 -36 -77 -3 -107 20 -19 35 -22 99 -22 94 0 122
17 122 75 0 57 -28 75 -119 75 -58 0 -77 -4 -99 -21z"/>
<path d="M3292 453 c-7 -3 -19 -18 -28 -35 -13 -25 -13 -35 -3 -59 6 -17 20
-34 30 -39 27 -15 161 -12 181 4 40 30 39 92 0 122 -17 13 -152 18 -180 7z"/>
<path d="M3675 435 c-14 -13 -25 -36 -25 -50 0 -14 11 -37 25 -50 21 -22 33
-25 98 -25 91 0 127 21 127 75 0 54 -36 75 -127 75 -65 0 -77 -3 -98 -25z"/>
</g>
</svg>
