<?xml version="1.0" standalone="no"?>
<!DOCTYPE svg PUBLIC "-//W3C//DTD SVG 20010904//EN"
 "http://www.w3.org/TR/2001/REC-SVG-20010904/DTD/svg10.dtd">
<svg version="1.0" xmlns="http://www.w3.org/2000/svg"
 width="512.000000pt" height="512.000000pt" viewBox="0 0 512.000000 512.000000"
 preserveAspectRatio="xMidYMid meet">

<g transform="translate(0.000000,512.000000) scale(0.100000,-0.100000)"
fill="#000000" stroke="none">
<path d="M4335 5104 c-267 -16 -285 -21 -285 -77 0 -18 6 -42 14 -53 16 -21
50 -22 286 -10 l115 6 -60 -56 c-100 -93 -408 -352 -570 -479 -514 -404 -1120
-804 -1695 -1120 -582 -319 -1294 -640 -1905 -860 -197 -71 -235 -92 -235
-132 0 -26 41 -73 63 -73 18 0 430 151 627 230 1439 576 2692 1341 3789 2313
41 37 77 65 79 63 2 -3 -8 -84 -22 -180 -28 -185 -27 -204 14 -226 28 -15 46
-12 74 13 23 20 27 43 66 311 42 288 42 289 22 315 -24 33 -51 34 -377 15z"/>
<path d="M4336 3828 c-14 -20 -16 -217 -16 -1905 0 -1870 0 -1883 20 -1903 19
-19 33 -20 378 -20 l359 0 21 23 22 23 0 1882 c0 1869 0 1882 -20 1902 -19 19
-33 20 -384 20 l-365 0 -15 -22z m644 -1898 l0 -1790 -260 0 -260 0 0 1790 0
1790 260 0 260 0 0 -1790z"/>
<path d="M2900 3080 c-20 -20 -20 -33 -20 -1528 l0 -1509 23 -21 c23 -22 28
-22 378 -22 l356 0 21 23 22 23 0 1507 c0 1494 0 1507 -20 1527 -19 19 -33 20
-380 20 -347 0 -361 -1 -380 -20z m640 -1530 l0 -1410 -260 0 -260 0 0 1410 0
1410 260 0 260 0 0 -1410z"/>
<path d="M1460 2470 c-20 -20 -20 -33 -20 -1223 l0 -1204 23 -21 c23 -22 28
-22 378 -22 l356 0 21 23 22 23 0 1202 c0 1189 0 1202 -20 1222 -19 19 -33 20
-380 20 -347 0 -361 -1 -380 -20z m640 -1220 l0 -1110 -260 0 -260 0 0 1110 0
1110 260 0 260 0 0 -1110z"/>
<path d="M25 1575 l-25 -24 0 -754 0 -754 23 -21 c23 -22 28 -22 380 -22 344
0 358 1 377 20 20 20 20 33 20 779 l0 760 -26 20 c-26 20 -38 21 -376 21
l-349 0 -24 -25z m635 -775 l0 -660 -260 0 -260 0 0 660 0 660 260 0 260 0 0
-660z"/>
</g>
</svg>
