<?xml version="1.0" standalone="yes"?>
<svg xmlns="http://www.w3.org/2000/svg" width="512" height="512">
<path style="fill:#ffffff; stroke:none;" d="M0 0L0 192L1 192C1.06046 170.09 8.77858 146.777 17.6944 127C47.1963 61.558 119.029 1.62051 194 1L175 0L136 0L0 0z"/>
<path style="fill:#010101; stroke:none;" d="M194 0.424377C129.859 8.94919 73.7664 39.3344 36.0363 93C-34.8547 193.832 2.74924 339.549 110 397.691C159.438 424.493 219.682 432.056 274 416.573C294.065 410.853 313.32 402.824 331 391.681C335.511 388.838 346.628 377.967 352 380.022C362.522 384.049 372.772 400.246 381 407.91C406.482 431.647 431.358 456.398 456 481C467.178 492.16 481.929 515.151 500 511.66C509.991 509.73 514.661 498.065 510.991 489C507.556 480.516 497.351 473.351 491 467C462.82 438.82 434.182 411.182 406 383C399.115 376.115 392.213 369.363 385 362.83C382.662 360.713 378.168 357.472 378.016 354C377.842 350.033 383.267 345.802 385.54 343C392.612 334.285 398.739 324.744 404.281 315C419.475 288.287 427.124 259.334 430.715 229C445.966 100.157 320.943 -16.4472 194 0.424377z"/>
<path style="fill:#ffffff; stroke:none;" d="M236 0L236 1C261.344 1.06982 288.578 10.5437 311 21.7531C395.71 64.1029 445.223 157.239 427.54 251C422.438 278.052 411.526 304.109 396.333 327C391.939 333.619 387.284 339.952 382.131 346C380.178 348.293 376.459 351.618 377.342 355C378.527 359.536 384.676 363.353 388 366.285C396.056 373.391 403.406 381.406 411 389C433.849 411.849 457.155 434.155 480 457C489.955 466.955 504.488 477.446 511 490L512 490L512 0L236 0M208 33.4244C192.379 35.4754 177.249 36.3054 162 41.0255C112.565 56.3274 70.9428 91.7518 49.3086 139C41.5145 156.022 37.0617 174.474 34.8449 193C21.3561 305.723 124.698 403.383 236 389.714C322.502 379.09 390.923 309.438 396.91 222C402.735 136.951 341.606 58.9335 260 38.6266C243.846 34.6067 224.627 31.2413 208 33.4244M0 232L0 512L490 512L490 511C476.597 505.808 465.097 488.98 455 479.004C430.886 455.177 406.808 431.019 382 407.91C373.797 400.27 362.686 382.776 352 379.252C348.362 378.053 344.671 381.66 342 383.629C335.321 388.553 328.25 393.093 321 397.138C296.476 410.821 268.853 419.501 241 422.845C151.276 433.616 64.8122 386.105 22.3094 307C14.0008 291.536 8.19729 274.107 4.42438 257C2.6919 249.145 3.06649 239.291 0 232M511 501C509.063 505.986 505.986 509.063 501 511L501 512L512 512L511 501z"/>
</svg>
