<?xml version="1.0" standalone="yes"?>
<svg xmlns="http://www.w3.org/2000/svg" width="512" height="512">
<path style="fill:#ffffff; stroke:none;" d="M0 0L0 298L1 298C3.34166 284.864 14.3722 275.308 27 272.239C32.228 270.969 44.2225 271.477 47.4429 266.683C49.9714 262.919 55.5727 251.42 54.6752 247C52.603 236.795 41.2457 229.933 39.3287 219C34.9282 193.904 63.357 163.046 88 161.185C96.7765 160.523 105.041 164.883 112 169.721C116.11 172.578 121.547 178.213 127 177.255C131.365 176.488 142.166 172.693 145.062 169.298C152.134 161.005 145.955 135.047 166 140.434C168.279 141.047 170.177 142.411 171.786 144.109C177.928 150.586 175.216 158.233 173.92 166C172.769 172.899 172.573 182.159 168.196 187.895C164.272 193.037 157.713 193.977 152 196.054C143.579 199.115 135.581 204.983 127 207.197C117.248 209.712 106.289 198.278 99 193.144C94.8278 190.206 90.0613 186.687 85 189.746C79.2057 193.248 64.7675 205.496 65.9892 213C67.7772 223.982 80.1362 231.691 83.8657 242C87.1927 251.197 78.7489 260.864 75.4529 269C73.1029 274.801 72.1153 281.621 68.7755 286.96C60.2962 300.515 39.6362 290.988 29.419 300.514C23.9093 305.651 25.7063 318.195 26.0401 325C27.1068 346.739 62.9367 332 70.4406 351C73.4816 358.7 75.5371 366.526 79.2477 374C81.6341 378.807 85.6512 384.37 84.5941 390C82.4121 401.622 60.1927 415.775 67.7423 428C69.8508 431.414 73.1836 434.187 76 437C79.1492 440.145 82.4975 444.407 87 445.562C101.704 449.331 111.495 423.432 127 427.641C132.238 429.063 137.084 432.441 142 434.691C150.719 438.684 164.742 439.745 169.547 449.004C174.206 457.981 170.4 479.24 180.108 484.427C183.69 486.342 188.08 485.998 192 486C197.593 486.002 204.93 487.14 209.867 483.91C220.348 477.054 213.436 455.592 221.558 446.304C228.631 438.215 249.838 432.336 260 428.468C278.836 421.3 292.008 457.314 309 440.981C313.475 436.68 321.244 431.077 323.215 425C326.669 414.348 307.405 401.14 304.979 391C303.756 385.887 306.426 381.378 308.702 377C313.614 367.551 315.357 351.696 323.329 344.558C330.135 338.464 357.023 333.2 364.996 338.009C377.432 345.51 371.416 360.417 359 363.181C353.433 364.421 347.654 365.282 342 366C340.314 372.177 334.03 380.738 334.632 387C335.563 396.686 347.321 404.995 349.761 415C355.282 437.645 329.06 468.803 307 472.671C298.029 474.244 288.655 472.292 281 467.455C276.288 464.478 270.57 458.229 265 457.245C260.217 456.4 250.345 461.706 246.148 464.055C240.479 467.228 241.159 479.275 239.761 485C236.684 497.597 227.087 508.667 214 511L214 512L512 512L512 173L511 173C505.941 190.528 490.181 194.944 474 197C472.776 201.281 469.068 206.463 469.72 211C471.243 221.596 482.223 227.93 481.87 240C481.477 253.492 470.85 262.266 462 270.996C456.801 276.125 451.335 280.204 444 281.535C426.461 284.719 415.16 263.563 399.279 273.708C393.163 277.615 394.321 291.704 390.521 298C380.499 314.606 355.099 316.559 338 311.225C329.216 308.486 322.261 301.477 318.927 293C314.845 282.622 317.423 274.572 305 270.484C296.79 267.782 287.126 279.157 279 281.239C260.89 285.88 243.766 268.756 234.761 255C228.996 246.194 228.715 235.325 233.377 226C237.008 218.737 244.257 213.563 240.715 205C235.644 192.742 222.838 196.789 213 190.15C198.481 180.352 197.582 161.88 199.171 146C200.288 134.829 206.564 124.638 217 119.904C227.2 115.277 236.874 118.474 241.17 106C244.257 97.0344 233.07 88.6287 230.903 80C226.335 61.8174 241.38 47.904 254 37.213C262.366 30.1258 273.966 28.3351 284 32.6829C294.829 37.3754 299.662 45.6876 311.856 38.9452C317.402 35.8788 316.497 26.4262 318.22 21C321.356 11.1198 329.124 3.85052 339 1L309 0L240 0L0 0z"/>
<path style="fill:#010101; stroke:none;" d="M474 197C484.233 196.191 496.241 194.389 503.815 186.815C515.741 174.889 516.75 140.785 505.787 128.004C495.546 116.064 476.274 120.895 470.883 106C467.855 97.6308 478.333 89.9294 480.51 82C485.95 62.1875 469.551 41.0427 452 32.9159C443.606 29.0294 433.262 29.2833 425 33.3773C419.574 36.0657 413.485 43.3487 407 41.4776C391.875 37.1134 397.398 22.6968 389.443 12C377.408 -4.18195 339.569 -6.19855 325.185 8.18518C317.102 16.2683 320.413 30.3353 313.436 37.3009C303.323 47.3981 294.445 36.7757 285 32.6829C275.975 28.7723 265.514 29.4215 257 34.3634C241.434 43.3985 226.166 62.1459 230.903 81C233.56 91.5776 244.727 97.8624 239.557 108.997C235.701 117.3 227.634 116.152 220 118.44C211.704 120.926 204.786 126.916 201.481 135C194.92 151.054 196.663 179.765 212.001 190.15C222.614 197.336 237.896 192.633 241.391 208C242.757 214.003 235.887 219.978 233.377 225C228.934 233.886 228.628 245.19 233.529 254C242.17 269.532 260.983 286.112 280 281.239C288.381 279.092 297.424 268.061 306 271.304C317.135 275.514 315.114 283.308 318.548 293C321.596 301.605 328.2 308.481 337 311.225C353.605 316.405 380.648 315.34 390.521 299C394.631 292.198 393.136 277.789 400.133 273.708C414.663 265.235 426.663 283.582 443 281.826C451.161 280.95 457.302 276.617 463 270.996C468.008 266.056 474.074 261.138 477.637 255C482.973 245.806 483.248 234.425 478.366 225C476.048 220.525 471.121 216.029 470.222 211C469.417 206.492 473.213 201.43 474 197z"/>
<path style="fill:#ffffff; stroke:none;" d="M372 0L372 1C382.384 2.85211 390.82 12.1147 393.79 22C395.459 27.5554 394.381 35.8216 400.109 38.956C417.452 48.4469 430.745 23.5371 451 32.9159C466.724 40.1963 485.018 60.6436 480.985 79C478.102 92.1187 465.447 98.008 473.044 111.891C476.283 117.811 485.279 116.614 491 118.523C500.371 121.651 508.258 129.504 511 139L512 139L512 0L372 0M347.133 26.7423C337.569 30.9471 343.706 52.0648 333.906 58.8665C326.922 63.7133 307.476 72.9047 299 72.1705C283.212 70.8031 278.07 49.5399 263.015 65.0008C261.287 66.7757 259.212 68.6658 258.237 71C255.057 78.6113 269.521 89.6398 271.5 97C273.803 105.565 264.371 123.207 260.442 131C256.084 139.646 247.608 140.809 239 142.247C233.476 143.169 226.888 143.16 226.109 150.005C225.633 154.185 224.602 163.151 227.603 166.486C236.993 176.918 254.135 166.128 261.174 183C264.661 191.36 273.612 205.995 271.605 215C269.896 222.666 254.21 234.219 258.647 242C259.952 244.287 262.16 246.158 264.001 247.999C279.89 263.888 288.103 234.162 306 241.352C314.681 244.839 330.582 248.834 336.606 256.055C342.552 263.182 338.669 280.177 346.279 284.972C349.143 286.778 353.774 286.005 357 286C359.517 285.996 362.493 286.311 364.856 285.258C372.036 282.055 369.667 265.349 373.14 259.001C377.879 250.338 399.448 241.954 409 240.329C420.619 238.353 431.421 257.765 441 253.763C443.334 252.788 445.224 250.713 446.999 248.985C463.802 232.623 433.781 223.256 441.876 204C445.415 195.582 449.175 179.29 457.093 174.228C463.923 169.861 482.961 172.754 485.566 163.945C486.215 161.752 485.996 159.258 486 157C486.005 153.793 486.723 149.238 484.821 146.43C478.657 137.328 460.089 144.599 452.818 133.957C447.719 126.494 437.581 104.671 440.574 96C443.261 88.2162 451.412 82.7779 453.713 75C455.282 69.6969 445.857 62.0122 442 59.3619C437.257 56.1028 432.887 60.6689 429 63.3411C421.412 68.5579 414.573 74.6969 405 70.662C396.505 67.0817 381.636 63.6105 375.394 56.787C368.721 49.4941 373.372 32.4625 365.57 27.179C362.762 25.2772 358.207 25.9948 355 26C352.472 26.0041 349.51 25.6977 347.133 26.7423z"/>
<path style="fill:#010101; stroke:none;" d="M345 94.4391C303.195 101.019 280.864 149.213 300.49 186C313.692 210.746 341.1 221.9 368 217.704C408.036 211.458 429.288 164.505 412.677 129C400.695 103.39 372.48 90.1136 345 94.4391z"/>
<path style="fill:#ffffff; stroke:none;" d="M348 121.518C302.181 131.293 319.905 201.36 365 190.475C408.874 179.884 391.774 112.179 348 121.518z"/>
<path style="fill:#010101; stroke:none;" d="M342 366C347.352 365.577 352.721 364.555 358 363.575C370.043 361.34 379.346 346.219 365.985 338.009C357.871 333.024 330.586 338.013 323.329 343.854C319.255 347.133 318.217 352.305 316.645 357C313.17 367.384 301.526 381.973 305.25 393C309.222 404.763 330.193 417.991 318.956 430C314.848 434.39 306.868 445.534 300.424 445.895C285.818 446.714 277.769 423.051 261 427.789C254.36 429.665 248.399 433.963 242 436.547C234.667 439.509 223.835 440.443 219.688 448.09C214.379 457.882 219.317 478.802 207.981 484.427C204.283 486.263 200.007 485.998 196 486C191.455 486.002 186.325 486.593 182.015 484.852C168.552 479.412 176.475 454.912 167.606 445.214C163.718 440.963 157.197 440.157 152 438.308C144.353 435.586 137.489 431.36 130 428.352C113.033 421.535 104.751 444.281 90 445.613C82.7076 446.272 72.2852 433.316 68.4336 428C60.4636 416.999 82.2969 401.892 84.6088 391C86.3931 382.594 79.5675 374.342 76.4275 367C73.8257 360.916 72.6917 353.795 69.5579 348.015C61.4108 332.991 30.8062 345.487 26.5332 327.999C25.6682 324.459 25.9998 320.613 26 317C26.0003 312.36 25.5482 307.189 28.0895 303.055C36.1422 289.954 61.2942 301.46 69.3264 286.96C72.2101 281.754 73.2246 275.501 75.4529 270C79.1039 260.987 87.6134 251.23 83.8665 241C80.2508 231.128 67.2999 222.881 66.1443 212.285C65.4339 205.772 80.1173 193.851 85 190.449C90.4642 186.642 95.5172 191.381 100 194.579C108.59 200.706 118.661 210.865 130 206.532C138.193 203.401 145.639 198.614 154 195.695C159.318 193.838 165.45 192.898 168.853 187.895C172.988 181.814 173.02 172.077 174.25 165C175.656 156.906 178.286 147.205 169.957 141.742C150.279 128.837 150.44 159.085 145.566 167.775C143.301 171.815 130.54 176.784 126 176.944C121.011 177.119 115.857 171.654 112 169.029C105.159 164.373 97.4507 160.888 89 161.054C62.3516 161.577 34.73 193.774 39.3287 220C41.1851 230.587 52.8914 237.721 54.4282 247.576C55.0737 251.714 49.6179 262.219 47.4429 265.852C43.1744 272.981 23.511 271.936 16 276.174C-2.91949 286.851 -4.23185 319.95 0.927469 339C4.28313 351.39 14.8405 359.845 27 362.575C32.4098 363.789 41.0768 363.614 45.6065 366.938C49.5908 369.862 51.8171 378.445 53.3627 383C56.6413 392.663 42.2585 403.57 39.7639 413C33.7761 435.636 50.7192 451.115 66 464.895C76.446 474.315 93.6613 476.06 106 469.331C112.09 466.01 120.658 456.183 128 458.379C132.684 459.78 142.054 462.422 145.062 466.418C148.486 470.968 147.955 479.569 149.236 485C152.089 497.096 160.672 507.734 173 511.073C191.331 516.037 224.562 515.094 235.123 497C239.637 489.267 239.012 468.97 246.148 464.532C249.958 462.163 260.105 456.925 264.576 457.492C270.056 458.186 276.294 465.27 281 468.071C288.832 472.732 298.024 473.936 307 472.815C330.63 469.864 355.424 437.228 349.761 414C347.388 404.267 336.219 396.349 335.093 387C334.333 380.685 340.886 372.474 342 366M185 230.425C171.123 232.314 157.75 236.56 146 244.356C136.34 250.765 127.676 259.201 121.436 269C79.6637 334.601 139.307 421.477 216 402.255C244.874 395.018 268.535 373.461 277.656 345C281.329 333.539 288.893 304.656 269 304.059C251.633 303.539 253.747 333.321 247.741 345C232.914 373.831 196.855 385.711 168 371.191C127.003 350.56 123.668 293.596 161 267.774C168.409 262.649 177.142 259.202 186 257.754C192.783 256.645 200.409 257.853 205.196 251.812C217.027 236.88 196.921 228.802 185 230.425z"/>
<path style="fill:#ffffff; stroke:none;" d="M0 337L0 512L175 512L175 511C161.841 508.653 152.183 496.496 149.236 484C147.872 478.215 148.666 467.268 142.856 464.055C138.44 461.613 129.069 456.65 124 457.615C118.593 458.644 113.552 464.064 109 466.945C99.2975 473.087 86.8569 475.581 76 470.687C56.8935 462.073 34.6897 437.264 39.5185 415C41.7499 404.712 52.483 397.828 54.3858 388C55.3789 382.871 50.7144 374.626 48.5324 370.058C44.7443 362.128 28.4697 363.578 21 360.525C9.8688 355.975 5.48189 346.702 0 337z"/>
</svg>
