<?xml version="1.0" standalone="no"?>
<!DOCTYPE svg PUBLIC "-//W3C//DTD SVG 20010904//EN"
 "http://www.w3.org/TR/2001/REC-SVG-20010904/DTD/svg10.dtd">
<svg version="1.0" xmlns="http://www.w3.org/2000/svg"
 width="512.000000pt" height="512.000000pt" viewBox="0 0 512.000000 512.000000"
 preserveAspectRatio="xMidYMid meet">

<g transform="translate(0.000000,512.000000) scale(0.100000,-0.100000)"
fill="#000000" stroke="none">
<path d="M343 5006 c-88 -28 -175 -106 -216 -194 l-22 -47 0 -2190 0 -2190 23
-49 c34 -76 84 -129 154 -166 l63 -34 225 -7 c124 -4 1139 -13 2257 -20 l2031
-12 46 23 c52 24 92 70 107 121 11 39 -55 4321 -69 4455 -15 138 -75 230 -190
286 l-67 33 -2150 2 c-1749 1 -2158 -1 -2192 -11z m4362 -132 c56 -29 101 -92
113 -156 9 -47 77 -3866 70 -3874 -4 -3 -943 964 -1003 1033 -22 25 -64 56
-103 75 -59 29 -76 33 -147 33 -67 0 -89 -5 -135 -27 -70 -35 -111 -78 -369
-388 -120 -144 -230 -267 -253 -282 -85 -57 -192 -46 -263 27 -26 27 -183 290
-450 754 -225 392 -427 732 -448 757 -23 26 -64 56 -105 76 -57 28 -76 33
-143 33 -68 0 -84 -4 -145 -35 -67 -34 -80 -48 -537 -575 -257 -297 -489 -565
-517 -595 l-49 -55 0 1515 c-1 1039 2 1527 10 1553 13 49 73 115 124 138 38
18 127 19 2175 16 l2135 -2 40 -21z m-3179 -2065 c86 -22 96 -36 544 -814 232
-401 436 -745 453 -763 18 -18 61 -48 97 -65 56 -28 75 -32 145 -32 67 0 89 5
135 27 74 36 88 51 345 358 243 290 276 324 332 339 104 29 146 10 278 -128
61 -63 317 -328 570 -588 530 -545 473 -458 474 -721 1 -152 1 -153 -25 -179
l-26 -26 -1176 7 c-648 4 -1650 11 -2229 16 l-1052 8 -46 22 c-50 24 -90 70
-111 127 -10 30 -13 151 -14 564 l0 526 559 644 c386 447 569 650 592 661 63
29 92 33 155 17z"/>
<path d="M2689 4007 c-201 -68 -341 -237 -371 -444 -30 -211 73 -438 248 -543
128 -77 294 -102 425 -64 206 60 360 239 391 452 39 268 -129 529 -391 606
-82 24 -220 21 -302 -7z m334 -132 c124 -60 212 -178 238 -319 34 -183 -67
-379 -239 -463 -52 -26 -66 -28 -172 -28 -106 0 -119 2 -173 29 -76 37 -166
126 -200 197 -91 194 -39 414 126 539 86 64 143 81 262 77 85 -3 109 -8 158
-32z"/>
</g>
</svg>
