<?xml version="1.0" standalone="no"?>
<!DOCTYPE svg PUBLIC "-//W3C//DTD SVG 20010904//EN"
 "http://www.w3.org/TR/2001/REC-SVG-20010904/DTD/svg10.dtd">
<svg version="1.0" xmlns="http://www.w3.org/2000/svg"
 width="512.000000pt" height="512.000000pt" viewBox="0 0 512.000000 512.000000"
 preserveAspectRatio="xMidYMid meet">

<g transform="translate(0.000000,512.000000) scale(0.100000,-0.100000)"
fill="#000000" stroke="none">
<path d="M2325 4703 c-163 -21 -366 -66 -402 -89 -44 -28 -21 -104 30 -104 13
0 66 11 119 25 290 73 658 75 961 4 247 -58 498 -173 715 -328 l62 -45 -44
-17 c-180 -68 -303 -271 -281 -463 12 -96 61 -183 273 -476 168 -233 198 -570
87 -975 -55 -200 -196 -669 -204 -677 -5 -6 -656 1868 -669 1927 -2 10 20 14
97 17 110 3 135 14 179 78 43 64 15 163 -58 200 -38 19 -58 20 -652 20 -564 0
-616 -1 -647 -18 -48 -24 -73 -62 -78 -119 -6 -65 20 -111 77 -140 36 -19 61
-23 136 -23 l92 0 137 -331 137 -330 -194 -576 -195 -576 -77 224 c-42 123
-181 530 -309 904 l-233 680 102 5 c83 4 108 9 130 26 50 37 68 70 68 124 0
54 -18 87 -68 124 -26 20 -44 21 -347 26 l-319 5 68 80 c132 155 332 324 506
427 59 35 75 67 52 103 -25 39 -61 32 -158 -28 -540 -339 -904 -903 -992
-1536 -21 -146 -21 -435 0 -583 120 -877 766 -1592 1625 -1802 166 -40 311
-56 512 -56 262 0 451 31 690 110 176 59 207 80 193 135 -10 38 -46 48 -100
28 -25 -10 -48 -15 -51 -12 -3 4 -148 393 -321 865 -174 472 -321 865 -326
872 -6 6 -25 12 -43 12 -18 0 -37 -6 -43 -12 -5 -7 -152 -409 -327 -893 -175
-484 -319 -881 -320 -883 -1 -2 -50 16 -109 39 l-106 42 -21 56 c-146 390
-963 2602 -967 2618 -4 22 66 165 124 253 l27 40 342 0 c292 0 344 -2 355 -15
10 -12 10 -18 0 -30 -10 -12 -40 -15 -150 -15 -120 0 -139 -2 -153 -18 -10
-10 -17 -27 -17 -38 0 -10 161 -489 357 -1063 387 -1128 366 -1078 430 -1055
25 8 42 53 259 699 139 411 231 698 227 710 -10 37 -294 720 -309 743 -14 21
-21 22 -133 22 -123 0 -151 9 -137 45 5 13 79 15 606 15 527 0 601 -2 606 -15
14 -36 -13 -44 -159 -47 -140 -3 -141 -3 -156 -29 -13 -24 7 -87 368 -1140
210 -613 389 -1124 397 -1136 18 -28 64 -31 87 -5 16 18 185 561 267 860 27
100 56 229 65 286 37 254 4 529 -86 709 -17 32 -69 110 -116 175 -218 294
-247 379 -179 527 52 114 150 185 257 185 l57 0 85 -89 c137 -145 238 -285
332 -465 l58 -108 -7 -82 c-3 -44 -17 -124 -31 -176 -51 -190 -765 -2305 -781
-2315 -40 -24 -74 -58 -74 -74 0 -30 30 -61 58 -61 36 0 193 99 322 203 426
342 714 854 785 1392 20 152 19 432 -1 577 -120 877 -766 1592 -1625 1802
-173 42 -310 56 -522 55 -106 -1 -205 -4 -222 -6z m-1236 -2688 c243 -654 440
-1194 438 -1199 -3 -10 -180 108 -257 172 -370 310 -606 704 -707 1180 -25
119 -27 144 -28 382 0 203 4 274 18 350 24 132 78 323 88 313 4 -4 206 -543
448 -1198z m3474 905 c30 -157 32 -550 3 -705 -73 -396 -258 -765 -529 -1052
-92 -97 -241 -227 -245 -215 -1 5 108 337 243 738 135 401 295 882 356 1069
60 187 112 347 116 355 8 21 28 -49 56 -190z m-1664 -1524 c217 -591 279 -771
269 -777 -22 -14 -219 -58 -329 -74 -121 -17 -411 -20 -526 -5 -43 6 -124 20
-181 32 -86 17 -102 23 -97 37 9 21 532 1472 552 1529 9 24 19 40 23 35 3 -4
134 -354 289 -777z"/>
<path d="M1730 4549 c-25 -11 -53 -27 -62 -36 -37 -34 -9 -93 44 -93 43 0 125
39 137 66 15 34 14 41 -9 64 -25 25 -52 24 -110 -1z"/>
</g>
</svg>
